<svg width="524" height="80" viewBox="0 0 524 80" fill="none" xmlns="http://www.w3.org/2000/svg">
<path d="M26.1023 75.9999H0.321045V3.27264H26.3154C33.6307 3.27264 39.9281 4.72861 45.2074 7.64054C50.4868 10.5288 54.5469 14.6836 57.3878 20.105C60.2524 25.5264 61.6847 32.0132 61.6847 39.5653C61.6847 47.141 60.2524 53.6514 57.3878 59.0965C54.5469 64.5416 50.4631 68.7201 45.1364 71.632C39.8334 74.544 33.4887 75.9999 26.1023 75.9999ZM15.6975 62.8252H25.4631C30.0085 62.8252 33.8319 62.0203 36.9333 60.4104C40.0583 58.7769 42.402 56.2556 43.9645 52.8465C45.5507 49.4137 46.3438 44.9867 46.3438 39.5653C46.3438 34.1912 45.5507 29.7996 43.9645 26.3905C42.402 22.9814 40.0701 20.472 36.9688 18.8621C33.8674 17.2523 30.0441 16.4474 25.4986 16.4474H15.6975V62.8252Z" fill="white"/>
<path d="M139.907 39.6363C139.907 47.5671 138.404 54.3143 135.397 59.8778C132.414 65.4412 128.342 69.6907 123.181 72.6263C118.044 75.5383 112.268 76.9942 105.852 76.9942C99.3889 76.9942 93.5887 75.5264 88.4514 72.5908C83.3141 69.6552 79.2539 65.4057 76.271 59.8422C73.288 54.2788 71.7965 47.5435 71.7965 39.6363C71.7965 31.7054 73.288 24.9582 76.271 19.3948C79.2539 13.8314 83.3141 9.59366 88.4514 6.68173C93.5887 3.74612 99.3889 2.27832 105.852 2.27832C112.268 2.27832 118.044 3.74612 123.181 6.68173C128.342 9.59366 132.414 13.8314 135.397 19.3948C138.404 24.9582 139.907 31.7054 139.907 39.6363ZM124.318 39.6363C124.318 34.499 123.548 30.1666 122.01 26.6391C120.494 23.1117 118.352 20.4365 115.582 18.6136C112.812 16.7906 109.569 15.8792 105.852 15.8792C102.135 15.8792 98.8917 16.7906 96.1218 18.6136C93.3519 20.4365 91.1976 23.1117 89.6588 26.6391C88.1436 30.1666 87.386 34.499 87.386 39.6363C87.386 44.7736 88.1436 49.106 89.6588 52.6334C91.1976 56.1609 93.3519 58.8361 96.1218 60.659C98.8917 62.4819 102.135 63.3934 105.852 63.3934C109.569 63.3934 112.812 62.4819 115.582 60.659C118.352 58.8361 120.494 56.1609 122.01 52.6334C123.548 49.106 124.318 44.7736 124.318 39.6363Z" fill="white"/>
<path d="M269.657 75.9999H243.876V3.27264H269.87C277.185 3.27264 283.483 4.72861 288.762 7.64054C294.041 10.5288 298.102 14.6836 300.943 20.105C303.807 25.5264 305.239 32.0132 305.239 39.5653C305.239 47.141 303.807 53.6514 300.943 59.0965C298.102 64.5416 294.018 68.7201 288.691 71.632C283.388 74.544 277.043 75.9999 269.657 75.9999ZM259.252 62.8252H269.018C273.563 62.8252 277.387 62.0203 280.488 60.4104C283.613 58.7769 285.957 56.2556 287.519 52.8465C289.105 49.4137 289.898 44.9867 289.898 39.5653C289.898 34.1912 289.105 29.7996 287.519 26.3905C285.957 22.9814 283.625 20.472 280.523 18.8621C277.422 17.2523 273.599 16.4474 269.053 16.4474H259.252V62.8252Z" fill="white"/>
<path d="M316.63 75.9999V3.27264H332.006V63.3224H363.185V75.9999H316.63Z" fill="white"/>
<path d="M373.368 75.9999V3.27264H422.374V15.9502H388.744V33.2797H419.852V45.9573H388.744V63.3224H422.516V75.9999H373.368Z" fill="white"/>
<path d="M449.975 3.27264V75.9999H434.598V3.27264H449.975Z" fill="white"/>
<path d="M523.457 3.27264V75.9999H510.175L478.535 30.2258H478.002V75.9999H462.626V3.27264H476.12L507.512 49.0113H508.151V3.27264H523.457Z" fill="white"/>
<path d="M178 47C178 47 183.25 54 192 54C200.75 54 206 47 206 47M181.5 29.5H181.535M202.5 29.5H202.535M227 40C227 59.33 211.33 75 192 75C172.67 75 157 59.33 157 40C157 20.67 172.67 5 192 5C211.33 5 227 20.67 227 40Z" stroke="white" stroke-width="10" stroke-linecap="round" stroke-linejoin="round"/>
</svg>
